<svg xmlns="http://www.w3.org/2000/svg" viewBox="0 0 512 512">
  <defs>
    <linearGradient id="grad" x1="0%" y1="0%" x2="100%" y2="100%">
      <stop offset="0%" style="stop-color:#3b82f6;stop-opacity:1" />
      <stop offset="100%" style="stop-color:#1d4ed8;stop-opacity:1" />
    </linearGradient>
  </defs>
  <rect width="512" height="512" rx="96" fill="url(#grad)"/>
  <g fill="white">
    <!-- Document icon -->
    <path d="M160 80h128l80 80v272c0 17.67-14.33 32-32 32H160c-17.67 0-32-14.33-32-32V112c0-17.67 14.33-32 32-32z" opacity="0.9"/>
    <path d="M288 80v80h80" fill="none" stroke="white" stroke-width="16" stroke-linecap="round"/>
    <!-- Lines representing text -->
    <rect x="176" y="200" width="160" height="16" rx="4" opacity="0.6"/>
    <rect x="176" y="240" width="120" height="16" rx="4" opacity="0.6"/>
    <rect x="176" y="280" width="140" height="16" rx="4" opacity="0.6"/>
    <rect x="176" y="320" width="100" height="16" rx="4" opacity="0.6"/>
    <!-- Checkmark badge -->
    <circle cx="360" cy="360" r="64" fill="#10b981"/>
    <path d="M328 360l24 24 40-48" fill="none" stroke="white" stroke-width="12" stroke-linecap="round" stroke-linejoin="round"/>
  </g>
</svg>
